<?xml version="1.0" encoding="utf-8"?>
<!-- Generator: Adobe Illustrator 22.0.1, SVG Export Plug-In . SVG Version: 6.00 Build 0)  -->
<svg version="1.1" xmlns="http://www.w3.org/2000/svg" xmlns:xlink="http://www.w3.org/1999/xlink" x="0px" y="0px"
	 viewBox="0 0 20 20" style="enable-background:new 0 0 20 20;" xml:space="preserve">
<style type="text/css">
	.st0{display:none;}
	.st1{display:inline;}
	.st2{fill:#DBA6C6;}
	.st3{font-family:'Bauhaus2015';}
	.st4{font-size:15.6969px;}
	.st5{display:inline;fill:#EDC08A;}
	.st6{display:inline;fill:#DBA6C6;}
	.st7{fill:#EDC08A;}
</style>
<g id="Ebene_1" class="st0">
	<g class="st1">
		<text transform="matrix(1 0 0 1 0.2515 15.7627)" class="st2 st3 st4">(</text>
	</g>
	
		<image style="display:inline;overflow:visible;" width="18" height="18" xlink:href="old/icon_instruction.png"  transform="matrix(0.24 0 0 0.24 23.1667 5.9167)">
	</image>
	<text transform="matrix(1 0 0 1 6.7098 15.7627)" class="st5 st3 st4">f</text>
	<text transform="matrix(1 0 0 1 13.7515 15.7627)" class="st6 st3 st4">)</text>
</g>
<g id="Ebene_2">
	<g>
		<g>
			<g>
				<path class="st2" d="M4.2,14.8h1v1h-1h-1h-1v-1h-1v-1v-1v-1v-1v-1v-1v-1v-1V6h1V5h1h1h1v1h-1h-1v1v1v1v1v1v1v1v1v1H4.2z"/>
			</g>
		</g>
	</g>
	<g>
		<g>
			<path class="st7" d="M8.7,15.8h-1v-1v-1v-1v-1v-1h-1v-1h1v-1v-1v-1V6h1V5h1h1h1h1v1h1v1v1h-1h-1v-1V6h-1h-1v1v1v1v1h1h1v1h-1h-1
				v1v1v1v1v1H8.7z"/>
		</g>
	</g>
	<g>
		<g>
			<path class="st2" d="M16.7,15.8h-1h-1v-1h1h1v-1v-1v-1v-1v-1v-1v-1v-1V6h-1h-1V5h1h1h1v1h1v1v1v1v1v1v1v1v1v1h-1v1H16.7z"/>
		</g>
	</g>
</g>
</svg>
